<svg width="125" height="126" viewBox="0 0 125 126" fill="none" xmlns="http://www.w3.org/2000/svg">
<path d="M62.5 5.09961C94.7266 5.09961 120.801 31.1738 120.801 63.3516C120.801 95.5293 94.7266 121.652 62.5 121.652C30.2734 121.652 4.19922 95.5781 4.19922 63.4004C4.19922 31.2227 30.2734 5.09961 62.5 5.09961Z" fill="#E74D89"/>
<path d="M62.5 125.803C28.0273 125.803 0 97.8242 0 63.4004C0 28.9277 28.0273 0.949219 62.5 0.949219C96.9727 0.949219 125 28.9277 125 63.3516C125 97.7754 96.9727 125.803 62.5 125.803ZM115.186 71.8965C113.379 71.3105 98.6816 66.9648 81.9336 69.6016C88.916 88.7422 91.748 104.367 92.2852 107.59C104.297 99.5332 112.842 86.7402 115.186 71.8965ZM83.3496 112.521C82.5684 107.834 79.4434 91.5254 71.9727 72.0918C71.875 72.1406 71.7285 72.1895 71.6309 72.1895C41.5039 82.6875 30.7129 103.537 29.7363 105.49C38.7695 112.521 50.1465 116.721 62.5 116.721C69.873 116.77 76.9531 115.256 83.3496 112.521ZM22.8516 99.0938C24.0723 97.043 38.7207 72.8242 66.2598 63.8887C66.9434 63.6445 67.6758 63.4492 68.3594 63.2539C67.041 60.2266 65.5762 57.1992 64.0137 54.2207C37.3535 62.1797 11.4746 61.8379 9.13086 61.7891C9.13086 62.3262 9.08203 62.8633 9.08203 63.4004C9.13086 77.1211 14.3066 89.6211 22.8516 99.0938ZM10.2539 52.5117C12.6465 52.5605 34.6191 52.6582 59.6191 46.0176C50.7812 30.2949 41.2109 17.1113 39.8437 15.207C24.8535 22.2383 13.7207 36.0078 10.2539 52.5117ZM50 11.5937C51.4648 13.5469 61.1816 26.7305 69.9219 42.7949C88.916 35.666 96.9238 24.9238 97.9004 23.5566C88.4766 15.207 76.0742 10.1289 62.5 10.1289C58.2031 10.1289 54.0039 10.666 50 11.5937ZM103.809 29.709C102.686 31.2227 93.75 42.6973 74.0234 50.7539C75.2441 53.293 76.4648 55.8809 77.5879 58.4688C77.9785 59.3965 78.3691 60.3242 78.7598 61.2031C96.5332 58.957 114.16 62.5703 115.918 62.9121C115.771 50.3633 111.279 38.791 103.809 29.709Z" fill="#B2215A"/>
</svg>
