<svg width="113" height="113" viewBox="0 0 113 113" fill="none" xmlns="http://www.w3.org/2000/svg">
<path d="M95.8572 95.8578H79.1878V69.7525C79.1878 63.5274 79.0766 55.5138 70.5182 55.5138C61.836 55.5138 60.5075 62.296 60.5075 69.2991V95.8558H43.8386V42.1729H59.8408V49.5091H60.0652C63.3235 43.9381 69.4041 40.5983 75.8541 40.8379C92.749 40.8379 95.8643 51.9506 95.8643 66.4082L95.8572 95.8578ZM25.0301 34.8346C25.0291 34.8346 25.028 34.8346 25.028 34.8346C19.7213 34.8346 15.3546 30.4683 15.3546 25.1615C15.3546 19.8547 19.7213 15.4879 25.028 15.4879C30.3343 15.4879 34.7005 19.8537 34.7015 25.1595C34.7015 25.1595 34.7015 25.1605 34.7015 25.1615C34.7015 30.4673 30.3358 34.8341 25.0301 34.8346ZM33.3645 95.8578H16.678V42.1729H33.3645V95.8578ZM104.167 0.00776134H8.30127C3.80117 -0.0430624 0.0548486 3.61624 0 8.11641V104.382C0.0528358 108.884 3.79865 112.548 8.30127 112.499H104.167C108.681 112.556 112.44 108.893 112.5 104.382V8.10986C112.44 3.60014 108.676 -0.0586656 104.167 0.000712656" fill="#0A66C2"/>
</svg>
