<svg width="500" height="527" viewBox="0 0 500 527" fill="none" xmlns="http://www.w3.org/2000/svg">
<path d="M27.7008 367.107H107.434C118.867 367.107 128.135 376.375 128.135 387.808C128.135 399.241 118.867 408.509 107.434 408.509H27.7008C16.2681 408.509 7 399.241 7 387.808C7 376.376 16.2681 367.107 27.7008 367.107Z" stroke="white" stroke-width="14"/>
<path d="M27.7008 242.454H107.434C118.867 242.454 128.135 251.722 128.135 263.155C128.135 274.588 118.867 283.856 107.434 283.856H27.7008C16.2681 283.856 7 274.588 7 263.155C7 251.722 16.2681 242.454 27.7008 242.454Z" stroke="white" stroke-width="14"/>
<path d="M27.7008 117.802H107.434C118.867 117.802 128.135 127.07 128.135 138.503C128.135 149.935 118.867 159.203 107.434 159.203H27.7008C16.2681 159.203 7 149.935 7 138.503C7 127.07 16.2681 117.802 27.7008 117.802Z" stroke="white" stroke-width="14"/>
<path d="M91.5675 12H476C482.627 12 488 17.3726 488 24V502.316C488 508.943 482.627 514.316 476 514.316H91.5675C84.9401 514.316 79.5675 508.943 79.5675 502.316V24C79.5675 17.3726 84.9401 12 91.5675 12Z" stroke="white" stroke-width="24"/>
<path d="M289.663 261.768C322.302 261.768 346.746 232.89 346.746 199.884C346.746 166.878 322.302 138 289.663 138C257.023 138 232.58 166.878 232.58 199.884C232.58 232.89 257.023 261.768 289.663 261.768Z" stroke="white" stroke-width="24"/>
<path d="M324.637 261.909H253.363C200.143 261.909 157 305.052 157 358.272C157 374.218 169.927 387.145 185.873 387.145H392.127C408.073 387.145 421 374.218 421 358.272C421 305.052 377.857 261.909 324.637 261.909Z" stroke="white" stroke-width="24"/>
</svg>
