<svg width="144" height="99" viewBox="0 0 144 99" fill="none" xmlns="http://www.w3.org/2000/svg">
<path d="M142.715 13.968C142.07 11.1296 140.629 8.53223 138.617 6.38647C138.193 5.91895 137.75 5.50024 137.27 5.08154C133.705 1.95215 128.702 0 123.237 0H19.8476C14.3822 0 9.39717 1.95215 5.81587 5.08154C5.3366 5.50024 4.89337 5.91895 4.46803 6.38647C2.45507 8.53198 1.01445 11.1296 0.387334 13.968C0.12967 15.0635 0 16.1956 0 17.3401V80.7759C0 83.2095 0.590781 85.5488 1.64435 87.6614C2.62163 89.678 4.06253 91.5027 5.81559 93.0327C6.25994 93.4199 6.70121 93.7759 7.18272 94.1299C10.6162 96.614 15.0482 98.1143 19.8476 98.1143H123.237C128.038 98.1143 132.489 96.614 135.903 94.1143C136.383 93.7759 136.826 93.4199 137.27 93.0327C139.022 91.5027 140.462 89.678 141.46 87.6614V87.6457C142.513 85.5332 143.084 83.2095 143.084 80.7761V17.3401C143.084 16.1956 142.957 15.0635 142.715 13.968ZM12.9975 11.3547C14.7707 9.80737 17.1519 8.87061 19.8476 8.87061H123.237C125.932 8.87061 128.335 9.80737 130.087 11.3547C130.4 11.6304 130.696 11.9375 130.956 12.2427L76.7669 53.5012C75.2724 54.6455 73.4263 55.2107 71.5421 55.2107C69.677 55.2107 67.832 54.6455 66.3176 53.5012L12.1487 12.2251C12.3885 11.9199 12.6839 11.6304 12.9975 11.3547ZM10.154 80.7759V21.4045L49.3691 51.291L10.1738 81.1457C10.154 81.0325 10.154 80.905 10.154 80.7759ZM123.237 89.2419H19.8476C18.0923 89.2419 16.4499 88.8389 15.0482 88.1306L56.4023 56.6465L60.2631 59.5806C63.4939 62.0332 67.5369 63.2754 71.5421 63.2754C75.5681 63.2754 79.6107 62.0332 82.8413 59.5806L86.7001 56.6465L128.038 88.1306C126.634 88.8389 124.992 89.2419 123.237 89.2419ZM132.93 80.7759C132.93 80.905 132.93 81.0325 132.911 81.1457L93.7163 51.3084L132.93 21.4204V80.7759Z" fill="black"/>
</svg>
