<svg width="125" height="123" viewBox="0 0 125 123" fill="none" xmlns="http://www.w3.org/2000/svg">
<path fill-rule="evenodd" clip-rule="evenodd" d="M62.3138 0.5C27.8559 0.5 0 28.5612 0 63.2768C0 91.0268 17.8482 114.517 42.6084 122.83C45.7041 123.455 46.838 121.48 46.838 119.818C46.838 118.362 46.736 113.374 46.736 108.176C29.4018 111.918 25.7921 100.693 25.7921 100.693C23.0064 93.4171 18.8788 91.5472 18.8788 91.5472C13.2054 87.7015 19.2921 87.7015 19.2921 87.7015C25.5855 88.1173 28.8878 94.1454 28.8878 94.1454C34.4579 103.707 43.4337 101.005 47.0446 99.3418C47.56 95.2883 49.2117 92.4821 50.9656 90.9235C37.1403 89.4681 22.5944 84.0638 22.5944 59.9503C22.5944 53.0906 25.0689 47.4783 28.9898 43.1135C28.3712 41.5548 26.2041 35.1097 29.6097 26.4834C29.6097 26.4834 34.8712 24.8202 46.7347 32.9273C51.8139 31.5531 57.052 30.8541 62.3138 30.8482C67.5753 30.8482 72.9388 31.5765 77.8916 32.9273C89.7564 24.8202 95.0179 26.4834 95.0179 26.4834C98.4235 35.1097 96.2551 41.5548 95.6365 43.1135C99.6607 47.4783 102.033 53.0906 102.033 59.9503C102.033 84.0638 87.4873 89.3635 73.5587 90.9235C75.8291 92.898 77.7883 96.639 77.7883 102.564C77.7883 110.982 77.6862 117.739 77.6862 119.816C77.6862 121.48 78.8214 123.455 81.9158 122.832C106.676 114.515 124.524 91.0268 124.524 63.2768C124.626 28.5612 96.6684 0.5 62.3138 0.5Z" fill="#24292F"/>
</svg>
